<svg xmlns="http://www.w3.org/2000/svg" viewBox="0 0 420 300" role="img" aria-label="Calendar planning illustration">
  <defs>
    <linearGradient id="b" x1="0" y1="0" x2="1" y2="1"><stop stop-color="#173c78"/><stop offset="1" stop-color="#0c756f"/></linearGradient>
    <filter id="s" x="-20%" y="-20%" width="140%" height="140%"><feDropShadow dx="0" dy="10" stdDeviation="10" flood-color="#001a33" flood-opacity=".25"/></filter>
  </defs>
  <circle cx="321" cy="66" r="52" fill="#4b8cff" opacity=".16"/>
  <rect x="75" y="61" width="270" height="188" rx="24" fill="url(#b)" filter="url(#s)"/>
  <rect x="91" y="85" width="238" height="147" rx="18" fill="#f7faff"/>
  <path d="M91 119h238" stroke="#d5e0ef" stroke-width="3"/>
  <g fill="#eaf0f8"><rect x="107" y="132" width="37" height="31" rx="8"/><rect x="151" y="132" width="37" height="31" rx="8"/><rect x="195" y="132" width="37" height="31" rx="8"/><rect x="239" y="132" width="37" height="31" rx="8"/><rect x="283" y="132" width="30" height="31" rx="8"/><rect x="107" y="171" width="37" height="31" rx="8"/><rect x="151" y="171" width="37" height="31" rx="8"/><rect x="195" y="171" width="37" height="31" rx="8"/><rect x="239" y="171" width="37" height="31" rx="8"/><rect x="283" y="171" width="30" height="31" rx="8"/></g>
  <rect x="151" y="132" width="37" height="31" rx="8" fill="#4b8cff"/><path d="m160 147 7 7 13-15" fill="none" stroke="#fff" stroke-width="4" stroke-linecap="round" stroke-linejoin="round"/>
  <rect x="239" y="132" width="37" height="31" rx="8" fill="#24c79b"/><rect x="195" y="171" width="37" height="31" rx="8" fill="#ff6f72"/><path d="M208 190h12M214 184v12" stroke="#fff" stroke-width="3" stroke-linecap="round"/>
  <rect x="283" y="171" width="30" height="31" rx="8" fill="#ffd057"/>
  <g fill="#f7faff"><circle cx="119" cy="74" r="8"/><circle cx="160" cy="74" r="8"/><circle cx="201" cy="74" r="8"/><circle cx="242" cy="74" r="8"/></g>
  <circle cx="329" cy="73" r="31" fill="#f7faff" filter="url(#s)"/><circle cx="329" cy="73" r="23" fill="none" stroke="#1c5fb8" stroke-width="6"/><path d="M329 73v-13M329 73l11 8" stroke="#173c78" stroke-width="5" stroke-linecap="round"/>
  <rect x="45" y="185" width="92" height="56" rx="15" fill="#fff" filter="url(#s)"/><circle cx="68" cy="211" r="10" fill="#ffd057"/><path d="M68 205v12M62 211h12" stroke="#fff" stroke-width="3" stroke-linecap="round"/><rect x="85" y="202" width="35" height="6" rx="3" fill="#c9d6e7"/><rect x="85" y="215" width="25" height="6" rx="3" fill="#ff6f72"/>
</svg>